<?xml version="1.0" standalone="no"?>
<!DOCTYPE svg PUBLIC "-//W3C//DTD SVG 20010904//EN"
 "http://www.w3.org/TR/2001/REC-SVG-20010904/DTD/svg10.dtd">
<svg version="1.0" xmlns="http://www.w3.org/2000/svg"
 width="1024.000000pt" height="1024.000000pt" viewBox="0 0 1024.000000 1024.000000"
 preserveAspectRatio="xMidYMid meet">

<g transform="translate(0.000000,1024.000000) scale(0.100000,-0.100000)"
fill="#000000" stroke="none">
<path d="M0 5120 l0 -5120 5120 0 5120 0 0 5120 0 5120 -5120 0 -5120 0 0
-5120z m7175 3020 c110 -10 204 -31 310 -71 67 -25 69 -36 2 -13 -58 20 -84
13 -37 -10 19 -9 26 -14 15 -10 -95 28 -241 54 -305 53 l-75 -2 70 -8 c38 -5
72 -13 75 -18 3 -5 16 -11 30 -13 14 -2 -68 -2 -182 1 -162 3 -208 1 -208 -9
0 -10 -3 -10 -15 0 -11 9 -15 9 -15 1 0 -14 -618 -12 -626 1 -3 5 -13 4 -23
-2 -12 -6 -22 -5 -31 3 -8 7 -10 8 -7 1 5 -8 -175 -11 -663 -12 -407 0 -670 3
-670 9 0 5 -5 9 -11 9 -5 0 -7 -4 -4 -10 4 -6 -17 -10 -54 -10 -42 0 -61 4
-62 13 0 10 -2 10 -6 0 -2 -7 -11 -13 -19 -13 -9 0 -12 5 -9 10 3 6 1 10 -4
10 -6 0 -11 -4 -11 -10 0 -12 -138 -12 -145 0 -9 14 -258 10 -267 -4 -6 -8 -8
-8 -8 2 0 8 -15 12 -42 12 -32 0 -39 -3 -28 -10 12 -8 10 -10 -8 -10 -13 0
-21 4 -17 9 3 6 -3 9 -14 8 -11 0 -17 -5 -15 -9 3 -4 -2 -8 -10 -8 -8 0 -18 5
-21 10 -8 13 -45 13 -45 0 0 -5 -159 -9 -417 -10 -230 0 -457 -3 -506 -6 -236
-14 -486 -133 -672 -321 -52 -53 -93 -99 -90 -103 3 -4 -1 -10 -8 -13 -20 -8
-82 -132 -105 -212 -12 -38 -27 -88 -34 -110 -10 -32 -14 -390 -18 -1695 l-6
-1655 2 1675 c2 921 4 1689 6 1707 2 17 7 29 11 26 4 -2 5 7 1 21 -3 15 -2 26
4 26 5 0 12 10 15 23 6 22 6 22 -10 2 -15 -19 -15 -19 -8 5 4 14 10 27 14 30
3 3 7 16 9 29 2 21 12 47 45 121 28 61 86 140 161 219 44 47 65 73 47 56 -223
-199 -320 -417 -342 -765 -7 -111 -9 -797 -6 -2080 5 -1719 7 -1923 21 -1997
31 -154 74 -263 157 -399 29 -46 56 -84 61 -84 5 0 11 -8 15 -17 3 -10 29 -42
57 -72 l51 -55 -52 43 c-137 111 -251 302 -311 520 l-27 96 -3 2045 c-2 1503
0 2070 8 2140 22 173 77 322 173 465 53 78 175 200 256 254 153 104 356 175
539 190 145 12 3985 13 4117 1z m-4343 -300 c-28 -13 -41 -24 -36 -31 4 -8 3
-9 -4 -5 -11 6 -16 -6 -13 -26 0 -5 -6 -8 -15 -8 -8 0 -12 -4 -9 -10 3 -5 0
-10 -8 -10 -7 0 -65 -51 -128 -112 -80 -79 -129 -137 -162 -192 -26 -43 -47
-83 -47 -88 0 -5 -4 -7 -9 -4 -5 3 -8 0 -7 -7 0 -6 -3 -13 -8 -14 -22 -4 -58
-159 -70 -303 -2 -25 -2 0 0 55 12 361 175 623 464 747 73 31 119 38 52 8z
m5109 -107 c13 -16 12 -17 -3 -4 -10 7 -18 15 -18 17 0 8 8 3 21 -13z m19 -43
l-11 25 22 -25 c43 -49 119 -225 147 -342 l27 -113 0 -2080 0 -2080 -21 -95
c-58 -257 -179 -451 -376 -600 -145 -110 -288 -172 -485 -210 -102 -20 -143
-20 -2081 -20 -1690 0 -1996 2 -2111 15 -74 8 -137 18 -140 21 -6 7 70 0 154
-13 22 -3 37 -3 34 1 -4 4 -53 13 -110 21 -57 8 -124 21 -149 29 -25 9 -34 14
-20 11 14 -3 86 -15 160 -27 134 -22 147 -22 1265 -23 622 0 1537 2 2035 5
l905 6 105 26 c233 58 382 140 531 295 156 162 234 334 259 573 14 133 13
4092 0 4180 -24 148 -88 312 -167 425 l-35 50 37 -40 c28 -30 34 -34 25 -15z
m-1739 -768 c263 -70 490 -260 595 -499 111 -251 110 -623 -2 -844 -48 -96
-157 -222 -419 -487 -241 -245 -380 -373 -502 -462 l-40 -29 1 142 c1 97 -5
176 -18 250 l-18 107 278 278 c297 295 328 335 367 469 38 129 26 298 -29 411
-59 121 -217 239 -363 272 -115 27 -288 -8 -398 -79 -139 -90 -703 -628 -782
-747 -90 -134 -115 -285 -71 -428 19 -61 31 -76 145 -197 137 -145 165 -190
165 -266 0 -43 -5 -57 -32 -90 -18 -21 -50 -54 -72 -72 -38 -30 -44 -32 -90
-26 -96 12 -211 88 -337 223 -157 168 -224 345 -223 592 0 150 22 247 86 380
49 102 55 110 227 284 267 270 617 603 699 664 121 89 253 147 390 172 85 16
358 4 443 -18z m1707 -2157 l-3 -1700 -23 -80 c-88 -315 -295 -511 -627 -595
-138 -35 -307 -43 -755 -36 -228 3 -649 6 -934 6 -286 0 -517 2 -515 4 2 2
380 6 839 10 982 7 1127 11 1229 32 216 45 363 118 491 244 157 156 219 306
234 570 9 162 16 583 21 1420 8 1201 22 2178 33 2255 11 78 13 -287 10 -2130z
m-2671 780 c113 -51 262 -181 339 -296 158 -238 177 -628 42 -880 -16 -32 -80
-115 -142 -186 -150 -170 -610 -623 -711 -699 -226 -170 -373 -224 -614 -224
-228 0 -447 87 -623 249 -121 111 -217 276 -264 457 -22 83 -26 121 -27 239 0
121 3 154 26 238 56 210 110 290 382 566 236 240 404 397 510 477 40 30 74 54
76 54 2 0 3 -38 1 -85 -3 -86 17 -256 41 -350 l13 -50 -262 -260 c-252 -250
-264 -263 -303 -345 -67 -137 -84 -253 -57 -381 32 -148 128 -264 281 -340 75
-38 96 -43 169 -47 105 -6 210 17 305 64 83 41 316 256 576 532 172 181 216
240 263 354 23 55 26 77 27 173 0 105 -2 114 -33 178 -25 51 -61 96 -139 175
-179 183 -198 267 -86 374 21 20 47 38 58 41 34 8 98 -4 152 -28z m2810 -1047
c-3 -7 -5 -2 -5 12 0 14 2 19 5 13 2 -7 2 -19 0 -25z m0 -110 c-2 -18 -4 -4
-4 32 0 36 2 50 4 33 2 -18 2 -48 0 -65z m0 -100 c-2 -13 -4 -3 -4 22 0 25 2
35 4 23 2 -13 2 -33 0 -45z m0 -130 c-2 -13 -4 -5 -4 17 -1 22 1 32 4 23 2
-10 2 -28 0 -40z m0 -736 c-1 -130 -2 -23 -2 238 0 261 1 368 2 237 2 -130 2
-344 0 -475z m-5900 341 c-2 -16 -4 -5 -4 22 0 28 2 40 4 28 2 -13 2 -35 0
-50z m5880 -735 c-3 -7 -5 -2 -5 12 0 14 2 19 5 13 2 -7 2 -19 0 -25z m-10
-50 c-3 -8 -6 -5 -6 6 -1 11 2 17 5 13 3 -3 4 -12 1 -19z m-17 -63 c-16 -47
-23 -40 -8 8 6 20 13 35 16 33 2 -3 -1 -21 -8 -41z m-79 -188 c-10 -9 -11 -8
-5 6 3 10 9 15 12 12 3 -3 0 -11 -7 -18z m-60 -94 c-30 -42 -106 -123 -115
-123 -7 0 125 149 132 150 2 0 -6 -12 -17 -27z m-146 -153 c-42 -47 -247 -171
-261 -158 -1 2 34 23 79 46 46 23 107 63 137 87 60 48 73 55 45 25z m-5234
-107 c13 -16 12 -17 -3 -4 -10 7 -18 15 -18 17 0 8 8 3 21 -13z m4959 -57 c0
-7 -122 -46 -139 -45 -9 0 13 11 49 23 66 24 90 29 90 22z m-180 -56 c-34 -11
-60 -11 -35 0 11 5 29 8 40 8 16 0 15 -2 -5 -8z m-4367 -67 c-7 -2 -19 -2 -25
0 -7 3 -2 5 12 5 14 0 19 -2 13 -5z"/>
<path d="M3653 8043 c9 -2 25 -2 35 0 9 3 1 5 -18 5 -19 0 -27 -2 -17 -5z"/>
<path d="M3968 8043 c7 -3 16 -2 19 1 4 3 -2 6 -13 5 -11 0 -14 -3 -6 -6z"/>
<path d="M4513 8043 c9 -2 23 -2 30 0 6 3 -1 5 -18 5 -16 0 -22 -2 -12 -5z"/>
</g>
</svg>
